# xmcd
#
# Track frame offsets: 
#        150
#        25091
#        38813
#        60712
#        79905
#        99171
#        118251
#        136970
#        156689
#        174475
#        189537
#        208764
#        227580
#        244119
#        265090
#
# Disc length: 3756 seconds
#
# Revision: 0
# Processed by: cddbd v1.5.2PL0 Copyright (c) Steve Scherf et al.
# Submitted via: ExactAudioCopy v0.99pb3
#
DISCID=cd0eaa0f
DTITLE=Rockin' Johnny Band - Grim Reaper
DYEAR=2012
DGENRE=Blues
TTITLE0=Grim Reaper
TTITLE1=One And One Ain't Two
TTITLE2=Window To Your Soul
TTITLE3=I Was Fooled
TTITLE4=Lousy Dimes
TTITLE5=Rollin' And Tumblin'
TTITLE6=It's Expensive To Be Broke
TTITLE7=Don't Mess With Me Baby
TTITLE8=My Baby's A Good 'Un
TTITLE9=Brand New Boots
TTITLE10=My Sweet Baby
TTITLE11=Somebody Loan Me A Dime
TTITLE12=Shoe Leather And Tire Rubber
TTITLE13=Everybody Needs Somebody
TTITLE14=Party This Christmas
EXTD=
EXTT0=
EXTT1=
EXTT2=
EXTT3=
EXTT4=
EXTT5=
EXTT6=
EXTT7=
EXTT8=
EXTT9=
EXTT10=
EXTT11=
EXTT12=
EXTT13=
EXTT14=
PLAYORDER=
